<?xml version="1.0" encoding="UTF-8"?>
<svg xmlns="http://www.w3.org/2000/svg" width="128" height="128" viewBox="0 0 128 128" shape-rendering="crispEdges">
  <rect x="48" y="8" width="8" height="8" fill="#f78c2a"/>
  <rect x="72" y="8" width="8" height="8" fill="#f78c2a"/>

  <rect x="40" y="16" width="48" height="8" fill="#173a33"/>

  <rect x="32" y="24" width="8" height="8" fill="#173a33"/>
  <rect x="40" y="24" width="48" height="8" fill="#23bfa8"/>
  <rect x="88" y="24" width="8" height="8" fill="#173a33"/>

  <rect x="24" y="32" width="8" height="8" fill="#173a33"/>
  <rect x="32" y="32" width="8" height="8" fill="#23bfa8"/>
  <rect x="40" y="32" width="16" height="8" fill="#ffffff"/>
  <rect x="56" y="32" width="8" height="8" fill="#23bfa8"/>
  <rect x="64" y="32" width="16" height="8" fill="#ffffff"/>
  <rect x="80" y="32" width="16" height="8" fill="#23bfa8"/>
  <rect x="96" y="32" width="8" height="8" fill="#173a33"/>

  <rect x="16" y="40" width="16" height="8" fill="#173a33"/>
  <rect x="32" y="40" width="8" height="8" fill="#23bfa8"/>
  <rect x="40" y="40" width="8" height="8" fill="#ffffff"/>
  <rect x="48" y="40" width="8" height="8" fill="#0e1716"/>
  <rect x="56" y="40" width="8" height="8" fill="#23bfa8"/>
  <rect x="64" y="40" width="8" height="8" fill="#ffffff"/>
  <rect x="72" y="40" width="8" height="8" fill="#0e1716"/>
  <rect x="80" y="40" width="16" height="8" fill="#23bfa8"/>
  <rect x="96" y="40" width="8" height="8" fill="#173a33"/>
  <rect x="104" y="40" width="8" height="8" fill="#173a33"/>

  <rect x="16" y="48" width="16" height="8" fill="#173a33"/>
  <rect x="32" y="48" width="64" height="8" fill="#23bfa8"/>
  <rect x="96" y="48" width="16" height="8" fill="#173a33"/>

  <rect x="24" y="56" width="8" height="8" fill="#173a33"/>
  <rect x="32" y="56" width="56" height="8" fill="#23bfa8"/>
  <rect x="88" y="56" width="16" height="8" fill="#173a33"/>
  <rect x="104" y="56" width="8" height="8" fill="#1a8f82"/>
  <rect x="112" y="56" width="8" height="8" fill="#173a33"/>

  <rect x="8" y="64" width="16" height="8" fill="#173a33"/>
  <rect x="24" y="64" width="8" height="8" fill="#1a8f82"/>
  <rect x="32" y="64" width="8" height="8" fill="#173a33"/>
  <rect x="40" y="64" width="24" height="8" fill="#23bfa8"/>
  <rect x="64" y="64" width="32" height="8" fill="#ffab3a"/>
  <rect x="96" y="64" width="16" height="8" fill="#23bfa8"/>
  <rect x="112" y="64" width="8" height="8" fill="#173a33"/>

  <rect x="8" y="72" width="8" height="8" fill="#173a33"/>
  <rect x="16" y="72" width="8" height="8" fill="#1a8f82"/>
  <rect x="24" y="72" width="8" height="8" fill="#173a33"/>
  <rect x="32" y="72" width="24" height="8" fill="#23bfa8"/>
  <rect x="56" y="72" width="8" height="8" fill="#ffab3a"/>
  <rect x="64" y="72" width="8" height="8" fill="#ffd25a"/>
  <rect x="72" y="72" width="16" height="8" fill="#ffab3a"/>
  <rect x="88" y="72" width="24" height="8" fill="#23bfa8"/>
  <rect x="112" y="72" width="8" height="8" fill="#173a33"/>

  <rect x="16" y="80" width="8" height="8" fill="#173a33"/>
  <rect x="24" y="80" width="24" height="8" fill="#23bfa8"/>
  <rect x="48" y="80" width="40" height="8" fill="#ffab3a"/>
  <rect x="88" y="80" width="24" height="8" fill="#23bfa8"/>
  <rect x="112" y="80" width="8" height="8" fill="#173a33"/>

  <rect x="16" y="88" width="32" height="8" fill="#23bfa8"/>
  <rect x="48" y="88" width="16" height="8" fill="#1a8f82"/>
  <rect x="64" y="88" width="40" height="8" fill="#23bfa8"/>
  <rect x="104" y="88" width="8" height="8" fill="#173a33"/>

  <rect x="16" y="96" width="8" height="8" fill="#173a33"/>
  <rect x="24" y="96" width="8" height="8" fill="#23bfa8"/>
  <rect x="32" y="96" width="64" height="8" fill="#23bfa8"/>
  <rect x="96" y="96" width="8" height="8" fill="#173a33"/>
  <rect x="104" y="96" width="8" height="8" fill="#173a33"/>

  <rect x="16" y="104" width="8" height="8" fill="#173a33"/>
  <rect x="24" y="104" width="8" height="8" fill="#23bfa8"/>
  <rect x="32" y="104" width="8" height="8" fill="#173a33"/>
  <rect x="48" y="104" width="8" height="8" fill="#173a33"/>
  <rect x="56" y="104" width="8" height="8" fill="#1a8f82"/>
  <rect x="64" y="104" width="8" height="8" fill="#173a33"/>
  <rect x="80" y="104" width="8" height="8" fill="#173a33"/>
  <rect x="88" y="104" width="8" height="8" fill="#1a8f82"/>
  <rect x="96" y="104" width="8" height="8" fill="#173a33"/>

  <rect x="24" y="112" width="8" height="8" fill="#173a33"/>
  <rect x="32" y="112" width="8" height="8" fill="#f78c2a"/>
  <rect x="40" y="112" width="8" height="8" fill="#173a33"/>
</svg>
